<svg width="35" height="40" viewBox="0 0 35 40" fill="none" xmlns="http://www.w3.org/2000/svg">
<path d="M27.506 0.314935C28.6083 0.31621 29.6968 0.592848 30.6941 1.12517C31.6913 1.65749 32.5729 2.43241 33.276 3.3948C33.979 4.35719 34.4864 5.48341 34.7619 6.69331C35.0374 7.90322 35.0743 9.1671 34.87 10.395C34.6657 11.6229 34.2252 12.7847 33.5798 13.7977C32.9345 14.8108 32.1001 15.6501 31.1361 16.256C30.1721 16.862 29.1021 17.2197 28.0023 17.3036C26.9025 17.3875 25.7999 17.1957 24.7729 16.7417L16.2536 29.6082V37.1654H20.0044C20.336 37.1654 20.654 37.3147 20.8885 37.5805C21.1229 37.8463 21.2546 38.2068 21.2546 38.5827C21.2546 38.9586 21.1229 39.3191 20.8885 39.5849C20.654 39.8507 20.336 40 20.0044 40H10.0022C9.67059 40 9.35258 39.8507 9.11811 39.5849C8.88364 39.3191 8.75191 38.9586 8.75191 38.5827C8.75191 38.2068 8.88364 37.8463 9.11811 37.5805C9.35258 37.3147 9.67059 37.1654 10.0022 37.1654H13.753V29.6082L0.500109 9.59557C0.175483 9.1049 0 8.50811 0 7.89478V7.4214C0 7.0455 0.131725 6.685 0.366197 6.4192C0.600668 6.1534 0.91868 6.00407 1.25027 6.00407H4.05589L1.49533 2.29068C1.29107 1.99448 1.19897 1.61842 1.2393 1.24523C1.27963 0.872051 1.44908 0.532314 1.71037 0.300761C1.97167 0.0692085 2.30341 -0.0351928 2.6326 0.0105247C2.9618 0.0562423 3.2615 0.248334 3.46576 0.544541L7.22658 6.00407H20.422C20.9371 4.34051 21.8955 2.8995 23.1646 1.88031C24.4337 0.86112 25.9507 0.314113 27.506 0.314935ZM23.1651 6.00407H28.7563C29.0879 6.00407 29.4059 6.1534 29.6404 6.4192C29.8748 6.685 30.0066 7.0455 30.0066 7.4214V7.89195C30.0066 8.50528 29.8311 9.10207 29.5065 9.59274L26.3633 14.3408C27.2664 14.5806 28.2106 14.531 29.0903 14.1975C29.97 13.864 30.7506 13.2597 31.3447 12.4522C31.9388 11.6446 32.3231 10.6657 32.4547 9.62478C32.5862 8.58386 32.4597 7.52199 32.0894 6.55787C31.7192 5.59374 31.1196 4.76536 30.3579 4.16531C29.5961 3.56526 28.7022 3.2172 27.776 3.16004C26.8497 3.10287 25.9277 3.33885 25.113 3.8416C24.2983 4.34435 23.623 5.09405 23.1626 6.00691V6.00407H23.1651ZM9.18201 8.83872L14.2406 16.1805C14.4333 16.4776 14.5162 16.8483 14.4718 17.2136C14.4273 17.579 14.2589 17.9103 14.0025 18.1372C13.746 18.3641 13.4216 18.4688 13.0981 18.4289C12.7747 18.3891 12.4777 18.2079 12.2702 17.9238L6.00881 8.83872H3.12568L15.0033 26.7735L26.8809 8.83872H9.18201Z" fill="white"/>
</svg>
