<svg width="36" height="41" viewBox="0 0 36 41" fill="none" xmlns="http://www.w3.org/2000/svg">
<path d="M10.5882 30.75C10.5882 31.3764 10.1118 31.8889 9.52941 31.8889C8.94706 31.8889 8.47059 31.3764 8.47059 30.75V17.0833C8.47059 16.4569 8.94706 15.9444 9.52941 15.9444C10.1118 15.9444 10.5882 16.4569 10.5882 17.0833V30.75ZM14.8235 30.75C14.8235 31.3764 14.3471 31.8889 13.7647 31.8889C13.1824 31.8889 12.7059 31.3764 12.7059 30.75V17.0833C12.7059 16.4569 13.1824 15.9444 13.7647 15.9444C14.3471 15.9444 14.8235 16.4569 14.8235 17.0833V30.75ZM19.0588 30.75C19.0588 31.3764 18.5824 31.8889 18 31.8889C17.4176 31.8889 16.9412 31.3764 16.9412 30.75V17.0833C16.9412 16.4569 17.4176 15.9444 18 15.9444C18.5824 15.9444 19.0588 16.4569 19.0588 17.0833V30.75ZM28.5882 6.83333H27.5294V4.55556C27.5294 3.34735 27.0832 2.18862 26.2889 1.33429C25.4947 0.479959 24.4174 0 23.2941 0H4.23529C3.11202 0 2.03476 0.479959 1.24049 1.33429C0.446217 2.18862 0 3.34735 0 4.55556V34.1667C0 37.9387 2.84612 41 6.35294 41H21.1765C24.6833 41 27.5294 37.9387 27.5294 34.1667H28.5882C32.6753 34.1667 36 30.5906 36 26.1944V14.8056C36 10.4094 32.6753 6.83333 28.5882 6.83333ZM4.23529 4.55556H23.2941V6.83333H13.8833L13.6334 7.58955C13.2861 8.63278 12.2294 9.25233 11.268 9.06556L10.5311 8.93344L10.1647 9.63272C9.8916 10.1615 9.49278 10.6028 9.00908 10.9113C8.52537 11.2199 7.97413 11.3847 7.41177 11.3889C5.66047 11.3889 4.23529 9.85594 4.23529 7.97222V4.55556ZM23.2941 34.1667C23.2941 34.7708 23.071 35.3501 22.6739 35.7773C22.2767 36.2045 21.7381 36.4444 21.1765 36.4444H6.35294C5.79131 36.4444 5.25268 36.2045 4.85554 35.7773C4.4584 35.3501 4.23529 34.7708 4.23529 34.1667V12.505C5.12259 13.2271 6.21741 13.6667 7.41177 13.6667C9.072 13.6667 10.6327 12.8102 11.6238 11.3889C13.1654 11.3889 14.5525 10.4983 15.3 9.11111H23.2941V34.1667ZM31.7647 26.1944C31.7647 28.0782 30.3395 29.6111 28.5882 29.6111H25.4118V11.3889H28.5882C30.3395 11.3889 31.7647 12.9218 31.7647 14.8056V26.1944Z" fill="#FFFDFD"/>
</svg>
