<svg width="30" height="40" viewBox="0 0 30 40" fill="none" xmlns="http://www.w3.org/2000/svg">
<path d="M17.5406 34.428L12.4394 34.4246C9.30651 34.415 6.26455 33.3705 3.78659 31.4535L4.49581 38.4201C4.52423 38.6993 4.65521 38.9579 4.86341 39.146C5.07161 39.3341 5.34219 39.4382 5.62277 39.4382H24.3772C24.6578 39.4382 24.9284 39.3341 25.1366 39.146C25.3448 38.9579 25.4758 38.6993 25.5042 38.4201L26.2131 31.4562C23.7324 33.3758 20.6863 34.4207 17.5496 34.428L17.5406 34.428Z" fill="#FFFDFD"/>
<path d="M28.945 0.935187C28.8388 0.817631 28.7091 0.723659 28.5643 0.659338C28.4195 0.595018 28.2628 0.561779 28.1043 0.561768H1.89563C1.73719 0.561754 1.58051 0.59498 1.43571 0.659302C1.29092 0.723623 1.16122 0.817608 1.05502 0.935183C0.948814 1.05276 0.868457 1.19131 0.819142 1.34188C0.769826 1.49245 0.752649 1.65169 0.76872 1.80931L3.51413 28.777C4.66727 29.9842 6.05228 30.9461 7.58614 31.6051C9.12 32.2641 10.7711 32.6067 12.4406 32.6122L17.5418 32.6156H17.5497C19.2208 32.6114 20.8738 32.2694 22.4095 31.6102C23.9451 30.951 25.3316 29.9881 26.4856 28.7794L29.2313 1.80931C29.2474 1.65169 29.2302 1.49245 29.1809 1.34188C29.1315 1.19131 29.0512 1.05276 28.945 0.935187ZM25.9964 4.5051L24.1169 22.9664C24.0942 23.1895 23.9896 23.3963 23.8232 23.5467C23.6569 23.6972 23.4407 23.7806 23.2164 23.7809C23.1854 23.7809 23.1544 23.7794 23.1235 23.7762C22.8844 23.7519 22.6648 23.6336 22.5129 23.4473C22.3611 23.261 22.2894 23.022 22.3138 22.7829L24.1932 4.32157C24.2052 4.20317 24.2405 4.0883 24.2969 3.98353C24.3534 3.87875 24.4299 3.78612 24.5221 3.71092C24.6144 3.63571 24.7205 3.57942 24.8345 3.54524C24.9485 3.51106 25.0682 3.49967 25.1866 3.51172C25.305 3.52377 25.4198 3.55903 25.5246 3.61547C25.6294 3.67191 25.722 3.74844 25.7972 3.84068C25.8724 3.93292 25.9287 4.03907 25.9629 4.15307C25.9971 4.26707 26.0084 4.38669 25.9964 4.50509L25.9964 4.5051Z" fill="#FFFDFD"/>
</svg>
