<svg width="36" height="40" viewBox="0 0 36 40" fill="none" xmlns="http://www.w3.org/2000/svg">
<path d="M35.708 16.7857L30.0727 1.01787C29.9651 0.722546 29.7444 0.463826 29.4436 0.280368C29.1428 0.0969105 28.778 -0.00143826 28.4037 1.58963e-05H7.59627C7.22201 -0.00143826 6.85723 0.0969105 6.55642 0.280368C6.25562 0.463826 6.03493 0.722546 5.92734 1.01787L0.29198 16.7857C-0.188593 18.0957 -0.0730041 19.5052 0.617097 20.75C2.00859 23.2826 4.1898 25.4663 6.93867 27.0786C9.68754 28.6909 12.9059 29.6742 16.266 29.9286V37.1429H9.33022C8.87035 37.1429 8.42931 37.2934 8.10413 37.5613C7.77895 37.8292 7.59627 38.1926 7.59627 38.5714C7.59627 38.9503 7.77895 39.3137 8.10413 39.5816C8.42931 39.8495 8.87035 40 9.33022 40H26.6698C27.1297 40 27.5707 39.8495 27.8959 39.5816C28.2211 39.3137 28.4037 38.9503 28.4037 38.5714C28.4037 38.1926 28.2211 37.8292 27.8959 37.5613C27.5707 37.2934 27.1297 37.1429 26.6698 37.1429H19.734V29.9286C23.0941 29.6742 26.3125 28.6909 29.0613 27.0786C31.8102 25.4663 33.9914 23.2826 35.3829 20.75C36.073 19.5052 36.1886 18.0957 35.708 16.7857ZM18.7803 14.4286C13.1016 12.1072 8.54994 12.1072 5.3638 12.7322L8.89673 2.85716H27.1033L31.6116 15.4464C29.2924 16.25 24.8925 16.9464 18.7803 14.4286Z" fill="white"/>
</svg>
